<svg width="22" height="21" fill="none" xmlns="http://www.w3.org/2000/svg"><path d="M6.5 9.4a1 1 0 00-.6.2 1 1 0 00-.2 1.6 1 1 0 001.2.3l.5-.4a1 1 0 00-.2-1.3 1 1 0 00-.7-.4zm4.3 0a1 1 0 00-.6.2 1 1 0 00-.2 1.6 1 1 0 001.2.3l.5-.4a1 1 0 00-.2-1.3 1 1 0 00-.7-.4zm4.3 0a1 1 0 00-.6.2 1 1 0 00-.5 1.1c0 .2.2.4.3.5a1 1 0 001.2.3l.5-.4a1 1 0 00-.2-1.3 1 1 0 00-.7-.4zM10.8 0a11 11 0 00-7.6 3 10.4 10.4 0 00-.7 14.1L.3 19.2a1 1 0 00-.2 1.2c0 .2.2.3.4.4.2.2.4.2.6.2h9.7c2.8 0 5.6-1.1 7.6-3a10.4 10.4 0 000-15c-2-1.9-4.8-3-7.6-3zm0 18.9H3.7l1-1a1 1 0 00.3-.7 1 1 0 00-.3-.8 8.3 8.3 0 013.6-14c1.9-.5 4-.4 5.8.3 1.8.8 3.3 2.1 4.2 3.8a8.2 8.2 0 01-2 10.5 8.7 8.7 0 01-5.5 1.9z" fill="#fff"/></svg>