<svg width="36" height="20" fill="none" xmlns="http://www.w3.org/2000/svg"><path fill-rule="evenodd" clip-rule="evenodd" d="M31.2 14a29.6 29.6 0 003.6 4.2c.3.4.3.8.2 1.1-.2.5-1 .7-1.3.7h-5c-.3 0-1 0-2-.7l-2-2c-.9-1.1-1.7-2.1-2.6-2.1a1 1 0 00-.3 0c-.6.3-1.4 1.2-1.4 3.6 0 .8-.6 1.2-1 1.2H17c-.8 0-4.8-.3-8.4-4C4.3 11.2.3 2 .3 1.8 0 1.3.6.9 1 .9h5c.7 0 1 .4 1 .8l2 4c1.8 3.1 2.8 4.4 3.7 4.4.1 0 .3 0 .4-.2 1.2-.6 1-4.6 1-5.4 0-.2 0-1.8-.7-2.6-.4-.6-1-.8-1.5-.9.1-.2.3-.4.7-.6.7-.3 2.1-.4 3.5-.4h.8c1.5 0 1.8.1 2.4.3 1 .2 1.1 1 1 3.4v3c-.1 1.2-.1 2.6.7 3.2l.4.1c.3 0 1.2 0 3.7-4.2 1-1.9 1.9-4.1 2-4.3l.3-.4.4-.1h6c.6 0 1 0 1.1.3.2.4 0 1.6-2.7 5.3l-1.2 1.6c-2.5 3.2-2.5 3.4.1 5.8z" fill="#fff"/></svg>