<svg width="143" height="59" fill="none" xmlns="http://www.w3.org/2000/svg"><path d="M0 29.5A29.5 29.5 0 0129.5 0h108a2 2 0 011.3 3.5L117 21.8a10 10 0 000 15.4l21.8 18.3a2 2 0 01-1.3 3.5h-108A29.5 29.5 0 010 29.5z" fill="#FF1640"/><path d="M18.9 19.8h7.6l5 17.2h-6l-.6-3.3h-4.4l-.8 3.3h-5.6L19 19.8zm5.4 10.8l-1.6-7.5-1.7 7.5h3.3zm8.8-10.8h5.4v13.4h6V37H33V19.8zm13.5 0h6.2c2.5 0 4.5.5 6 1.5 1.3 1 2 2.4 2 4.2 0 1.1-.3 2.1-1 3-.7.8-1.6 1.5-2.8 2a11 11 0 01-4 .6h-1V37h-5.4V19.8zm6.4 7.8c1 0 1.6-.1 2-.5.6-.4.8-.9.8-1.6 0-.7-.2-1.2-.7-1.6-.5-.3-1.2-.5-2-.5H52v4.2h1zm9.8-7.8h5.8V37h-5.8V19.8zm9 0h5l6.9 9.3v-9.3h4.5V37h-5l-7-9v9h-4.4V19.8zm19.6 0h12.1v3.8h-6v3.1h5.5V30h-5.5v3.3h6V37h-12V19.8z" fill="#fff"/></svg>