<svg width="25" height="22" fill="none" xmlns="http://www.w3.org/2000/svg"><path d="M12.5 0C6.2 0 1 5 1 11s5.2 11 11.5 11c6.4 0 11.6-5 11.6-11S18.9 0 12.5 0zm0 19.8A9 9 0 013.3 11a9 9 0 019.2-8.8 9 9 0 019.3 8.8 9 9 0 01-9.3 8.8z" fill="#000"/><path d="M15.8 14.1a4.7 4.7 0 01-4.2 1.2 5 5 0 01-1.7-.6l-1.2-1.2-2 1.2A6.6 6.6 0 0010 17a7.2 7.2 0 007.5-1.4l.9-1-2-1.2-.5.6zM8.5 11c1 0 1.7-.7 1.7-1.6 0-1-.8-1.7-1.7-1.7-1 0-1.7.7-1.7 1.7 0 .9.7 1.6 1.7 1.6zM16.6 8.8c-2.3 0-3 2.2-3 2.2h5.9s-.6-2.2-3-2.2z" fill="#000"/></svg>